# xmcd
#
# Track frame offsets: 
#        150
#        26820
#        53058
#        74595
#        95935
#        118440
#        145200
#        165053
#        189863
#        210725
#        232830
#        254800
#        283355
#
# Disc length: 4525 seconds
#
# Revision: 3
# Processed by: cddbd v1.5.1PL0 Copyright (c) Steve Scherf et al.
# Submitted via: ExactAudioCopy v0.95a5
#
DISCID=ca11ab0d
DTITLE=Santana - Supernatural
DYEAR=1999
DGENRE=Rock
TTITLE0=Da Le Yaleo
TTITLE1=Love Of My Live
TTITLE2=Put Your Lights On
TTITLE3=Africa Bamba
TTITLE4=Smooth
TTITLE5=Do You Like The Way
TTITLE6=Maria Maria
TTITLE7=Migra
TTITLE8=Corazon Espinado
TTITLE9=Wishing It Was
TTITLE10=El Farol
TTITLE11=Primavera
TTITLE12=The Calling
EXTD=
EXTT0=
EXTT1=Featuring Dave Matthews
EXTT2=Featuring Everlast
EXTT3=
EXTT4=Featuring Rob Thomas
EXTT5=Featuring Lauryn Hill and Cee-Lo
EXTT6=
EXTT7=
EXTT8=Featuring Mana
EXTT9=Featuring Egle-Eye Cherry
EXTT10=
EXTT11=
EXTT12=Featuring Eric Clapton
PLAYORDER=
